<svg viewBox="-0.5 -0.5 16 16" fill="none" xmlns="http://www.w3.org/2000/svg" id="Clipboard--Streamline-Solar-Ar" height="16" width="16">
  <desc>
    Clipboard Streamline Icon: https://streamlinehq.com
  </desc>
  <path d="M10 2.50121875c1.359375 0.007568749999999999 2.0955624999999998 0.06785000000000001 2.5758124999999996 0.5480875000000001C13.125 3.5984812500000003 13.125 4.48236875 13.125 6.250125v3.75c0 1.76775 0 2.6516875 -0.5491875 3.2008124999999996 -0.5491875 0.5491875 -1.4330625 0.5491875 -3.2008124999999996 0.5491875H5.625c-1.76776875 0 -2.65165 0 -3.200825 -0.5491875C1.875 12.651812499999998 1.875 11.767875 1.875 10.000125v-3.75c0 -1.76775625 0 -2.65164375 0.549175 -3.2008187500000003C2.9044125 2.5690687499999996 3.6406062500000003 2.5087875 5 2.50121875" stroke="#000000" stroke-width="1"></path>
  <path d="M5 8.75h5" stroke="#000000" stroke-linecap="round" stroke-width="1"></path>
  <path d="M4.375 6.5625h6.25" stroke="#000000" stroke-linecap="round" stroke-width="1"></path>
  <path d="M5.625 10.9375h3.75" stroke="#000000" stroke-linecap="round" stroke-width="1"></path>
  <path d="M5 2.1875C5 1.66973125 5.41973125 1.25 5.9375 1.25h3.125c0.51775 0 0.9375 0.41973125 0.9375 0.9375v0.625c0 0.51776875 -0.41974999999999996 0.9375 -0.9375 0.9375h-3.125C5.41973125 3.75 5 3.33026875 5 2.8125v-0.625Z" stroke="#000000" stroke-width="1"></path>
</svg>